<?xml version="1.0" encoding="UTF-8" standalone="no"?>
<svg width="100px" height="75px" viewBox="0 0 100 75" version="1.1" xmlns="http://www.w3.org/2000/svg" xmlns:xlink="http://www.w3.org/1999/xlink">
    <!-- Generator: Sketch 48.2 (47327) - http://www.bohemiancoding.com/sketch -->
    <title>Artboard</title>
    <desc>Created with Sketch.</desc>
    <defs></defs>
    <g id="Page-1" stroke="none" stroke-width="1" fill="none" fill-rule="evenodd" opacity="0.493528451">
        <g id="Artboard" fill="#000000">
            <g id="offline" transform="translate(19.000000, 12.000000)">
                <g id="Group" opacity="0.152576959">
                    <path d="M28.2753029,10.1834219 C26.8748496,11.8202798 25.8131631,12.3249261 25.0576956,12.3249261 C24.3348774,12.3249261 24.0618128,11.7690338 24.0618128,11.1337283 C24.0618128,10.9590626 24.0791541,10.7798244 24.1125833,10.5960727 C22.9611321,11.9065505 22.1431321,12.3249261 21.4436049,12.3249261 C20.7368493,12.3249261 20.4637847,11.7690338 20.4637847,11.1337283 C20.4637847,10.9374574 20.4856814,10.7354129 20.5275269,10.5276783 C19.3256334,11.88485 18.4756347,12.3249261 17.7652637,12.3249261 C17.0585081,12.3249261 16.7854435,11.7690338 16.7854435,11.1337283 C16.7854435,10.0060611 17.5082616,8.68780227 18.6005202,7.19483442 L20.0622191,5.11420901 C20.1425322,5.01891319 20.3031585,5.01891319 20.367409,5.11420901 C20.5601605,5.3683312 20.6565362,5.6701013 20.6565362,5.9718714 C20.6565362,6.25775886 20.5601605,6.54364632 20.3834716,6.7977685 L19.1948373,8.48132799 C18.7932717,9.08486819 18.134704,10.1172396 18.134704,10.8637235 C18.134704,11.1178457 18.2310798,11.2607894 18.4077687,11.2607894 C19.148057,11.2607894 20.3770164,9.91369923 21.4974809,8.33017356 C21.724005,7.96386866 21.9813144,7.58532755 22.2627988,7.19483442 L26.5033319,1.22296303 C26.583645,1.11178457 26.7282086,1.11178457 26.8085217,1.22296303 C27.0173359,1.50885049 27.1137116,1.76297267 27.1137116,2.06474277 C27.1137116,2.36651287 27.0173359,2.62063505 26.8245844,2.89063988 L22.8731785,8.48132799 C22.4716129,9.10075082 21.8130452,10.1331222 21.8130452,10.8637235 C21.8130452,11.1178457 21.8933584,11.2766721 22.0861099,11.2766721 C22.7952852,11.2766721 23.9722054,9.97325302 25.0443345,8.43282783 C25.2903959,8.03470819 25.5759006,7.62191979 25.8929521,7.19483442 L26.9530854,5.68598394 C27.0173359,5.59068812 26.9530854,5.47950966 26.8567096,5.47950966 L26.7442712,5.47950966 C26.5515197,5.47950966 26.4390813,5.33656593 26.4390813,5.17773956 C26.4390813,5.05067847 26.5193945,4.90773474 26.6478955,4.90773474 L27.4028389,4.90773474 C27.4670894,4.90773474 27.5313399,4.8918521 27.5634651,4.84420419 L28.9287883,2.89063988 C29.025164,2.76357878 29.2018529,2.81122669 29.2500408,2.87475724 C29.4588549,3.14476207 29.5552307,3.41476689 29.5552307,3.71653699 C29.5552307,4.03418972 29.4427923,4.32007718 29.2661034,4.57419937 C29.153665,4.73302573 29.2500408,4.90773474 29.410667,4.90773474 L29.5552307,4.90773474 C29.7319195,4.90773474 29.8604206,5.0665611 29.8604206,5.20950484 C29.8604206,5.38421384 29.7319195,5.47950966 29.6355438,5.47950966 L28.7199742,5.47950966 C28.639661,5.47950966 28.5914731,5.51127493 28.5593479,5.57480548 L26.4712066,8.48132799 C26.069641,9.10075082 25.427136,10.1331222 25.427136,10.8637235 C25.427136,11.1337283 25.5235117,11.2766721 25.7002006,11.2766721 C26.4477042,11.2766721 27.7538444,10.0524857 28.9745471,8.29886594 C29.9817149,6.56655474 31.8760066,4.90773474 33.5548244,4.90773474 C34.2294547,4.90773474 34.8719597,5.32068329 34.8719597,6.30540677 C34.8719597,7.59190034 33.9885153,9.51369938 32.7035052,10.8319582 C32.6071295,10.927254 32.7035052,11.0701978 32.8320062,11.0225499 C33.9885153,10.577836 34.855897,9.73605629 36.0605939,8.13190999 C36.3336586,8.16367526 36.4300343,8.43368008 36.3818464,8.70368491 C35.6750909,9.72017366 33.6672628,12.3249261 30.1495478,12.3249261 C29.0412267,12.3249261 28.254158,11.8007991 28.254158,10.5143055 C28.254158,10.4071069 28.2613448,10.2966132 28.2753029,10.1834219 Z M21.7327321,0 C22.808928,0 23.4835583,0.698836014 23.4835583,1.71532476 C23.4835583,2.9859357 22.6964896,4.14536818 21.7969826,4.14536818 C21.5078554,4.14536818 21.3151039,3.92301126 21.3151039,3.62124117 C21.3151039,3.04946624 21.8933584,2.43004341 22.3912998,2.43004341 C22.4876755,2.43004341 22.5358634,2.44592605 22.5840513,2.44592605 C22.7286149,2.44592605 22.8731785,2.23945177 22.8731785,1.77885531 C22.8731785,1.11178457 22.5198008,0.555892284 21.7648574,0.555892284 C17.9580152,0.555892284 16.0947506,12.8490531 11.018961,12.8490531 C9.60544997,12.8490531 8.75413082,11.8166817 8.64169245,10.5301881 C8.62562982,10.3554791 8.40075307,10.2919486 8.28831469,10.4190097 C7.24424404,11.673738 5.84679563,12.8490531 4.46540985,12.8490531 C3.00371094,12.8490531 2.18451705,11.7213859 2.18451705,10.2125354 C2.18451705,5.70186657 9.55726209,2.65240033 9.55726209,1.17531512 C9.55726209,0.778249198 9.07538333,0.603540194 8.30437731,0.603540194 C4.6260361,0.603540194 1.15650903,3.31947107 1.15650903,5.13009165 C1.15650903,5.70186657 1.50988678,6.11481513 2.1523918,6.1465804 C2.3451433,6.16246304 2.42545643,6.41658522 2.24876755,6.52776368 C2.00782817,6.68659005 1.71870091,6.76600323 1.39744841,6.76600323 C0.610379764,6.76600323 0,6.24187622 0,5.27303538 C0,3.01770097 3.93534321,0.0158826367 8.11162581,0.0158826367 C9.84638935,0.0158826367 10.2800802,0.635305468 10.2800802,1.17531512 C10.2800802,3.44653216 3.69440383,6.30540677 3.69440383,10.228418 C3.69440383,11.1654936 4.14415734,11.7849164 4.81878761,11.7849164 C5.83073301,11.7849164 7.35668242,10.4825402 8.83444395,8.41779745 L13.6211063,1.68355949 C13.7014194,1.57238103 13.8620457,1.57238103 13.9423588,1.68355949 C14.1351103,1.93768168 14.2314861,2.23945177 14.2314861,2.55710451 C14.2314861,2.8588746 14.1351103,3.14476207 13.9584214,3.39888425 L11.5650903,6.78188587 C10.4567691,8.33838426 10.1515792,9.25957719 10.1515792,10.1331222 C10.1515792,11.2131415 10.6816459,11.7849164 11.4526519,11.7849164 C15.5486214,11.7849164 15.8698739,0 21.7327321,0 Z M33.442386,5.47950966 C32.1734386,5.47950966 29.5552307,8.75133282 29.5552307,10.6572492 C29.5552307,10.9590193 29.667669,11.2925547 30.0531721,11.2925547 C31.3542447,11.2925547 34.0206405,8.11602735 34.0206405,6.25775886 C34.0206405,5.82892767 33.8760769,5.47950966 33.442386,5.47950966 Z" id="Wilto"></path>
                    <path d="M7.81960022,26.5877179 L5.18853423,17.4256186 L5.10933826,17.4256186 C5.2325326,18.9859966 5.29412885,20.1983167 5.29412885,21.0626153 L5.29412885,26.5877179 L2.21428571,26.5877179 L2.21428571,13.8669305 L6.84284997,13.8669305 L9.52671327,22.8985155 L9.59710969,22.8985155 L12.2281757,13.8669305 L16.8655395,13.8669305 L16.8655395,26.5877179 L13.6713022,26.5877179 L13.6713022,21.0104096 C13.6713022,20.7203765 13.6757019,20.3984446 13.6845015,20.0446043 C13.6933011,19.6907639 13.7328987,18.823578 13.8032955,17.4430205 L13.7240995,17.4430205 L11.1282317,26.5877179 L7.81960022,26.5877179 Z M27.0820181,26.5877179 L26.4484504,24.2036579 L22.2686633,24.2036579 L21.6174964,26.5877179 L17.7984909,26.5877179 L21.9958771,13.8147248 L26.633241,13.8147248 L30.8834245,26.5877179 L27.0820181,26.5877179 Z M25.7268871,21.3845504 L25.1725154,19.2963226 C25.0434546,18.8322697 24.8865308,18.2319102 24.7017393,17.4952262 C24.5169478,16.7585422 24.3952219,16.2306899 24.3365579,15.9116535 C24.2837604,16.2074872 24.1796334,16.6947355 24.0241738,17.3734129 C23.8687143,18.0520903 23.5240686,19.3891228 22.9902265,21.3845504 L25.7268871,21.3845504 Z M42.8158157,26.5877179 L38.8912156,26.5877179 L36.3481451,21.7238874 L35.3185975,22.3329539 L35.3185975,26.5877179 L31.8251755,26.5877179 L31.8251755,13.8669305 L35.3185975,13.8669305 L35.3185975,19.3920331 C35.4945895,19.049794 35.8495012,18.5074403 36.3833433,17.7649556 L39.0848057,13.8669305 L42.8862121,13.8669305 L38.8296187,19.5660521 L42.8158157,26.5877179 Z M51.3955777,26.5877179 L43.7575667,26.5877179 L43.7575667,13.8669305 L51.3955777,13.8669305 L51.3955777,16.6251313 L47.2333897,16.6251313 L47.2333897,18.6263496 L51.0875934,18.6263496 L51.0875934,21.3845504 L47.2333897,21.3845504 L47.2333897,23.7860123 L51.3955777,23.7860123 L51.3955777,26.5877179 Z M61.6120563,22.7244966 C61.6120563,23.5133866 61.4096686,24.2138059 61.0048872,24.8257758 C60.6001058,25.4377456 60.016408,25.9133927 59.2537764,26.2527314 C58.4911448,26.5920701 57.5965326,26.7617369 56.5699131,26.7617369 C55.7134191,26.7617369 54.9947962,26.702281 54.4140229,26.5833675 C53.8332496,26.4644539 53.2290197,26.2570833 52.6013152,25.9612496 L52.6013152,22.8985155 C53.2642181,23.2349539 53.9535094,23.4974299 54.6692099,23.6859514 C55.3849104,23.8744729 56.041937,23.9687323 56.6403095,23.9687323 C57.1565525,23.9687323 57.5349294,23.8802735 57.7754517,23.7033533 C58.015974,23.5264331 58.1362333,23.2987606 58.1362333,23.0203288 C58.1362333,22.846309 58.0878363,22.6940439 57.9910407,22.563529 C57.8942451,22.4330141 57.738788,22.301051 57.5246645,22.1676358 C57.310541,22.0342206 56.7400424,21.7615936 55.8131516,21.3497466 C54.9742568,20.9727036 54.3450952,20.6072674 53.9256478,20.253427 C53.5062004,19.8995867 53.195286,19.4935465 52.9928953,19.0352942 C52.7905046,18.5770419 52.6893107,18.0346882 52.6893107,17.4082167 C52.6893107,16.236483 53.1204845,15.3228925 53.9828449,14.6674178 C54.8452052,14.011943 56.0301997,13.6842105 57.5378638,13.6842105 C58.869536,13.6842105 60.2275865,13.9887407 61.6120563,14.5978102 L60.5473105,17.2515996 C59.3446991,16.7063374 58.3063623,16.4337104 57.4322692,16.4337104 C56.9805566,16.4337104 56.6520433,16.5120182 56.4467194,16.668636 C56.2413955,16.8252539 56.138735,17.0195732 56.138735,17.2515996 C56.138735,17.5010281 56.2692604,17.7243502 56.5303151,17.9215727 C56.7913698,18.1187952 57.4997266,18.4784308 58.6554069,19.0004904 C59.7641559,19.4935466 60.534109,20.0228491 60.9652892,20.5884136 C61.3964694,21.1539781 61.6120563,21.8659986 61.6120563,22.7244966 Z" id="MAKES"></path>
                    <path d="M8.32102164,32.8868611 L8.32102164,37.5770812 L12.7235522,37.5770812 L12.7235522,42.0145349 L8.32102164,42.0145349 L8.32102164,50.9456127 L2.21428571,50.9456127 L2.21428571,28.4774925 L14.2289336,28.4774925 L14.2289336,32.8868611 L8.32102164,32.8868611 Z M23.8351671,33.8417562 C23.8351671,33.5421797 23.7120868,33.3081392 23.4659226,33.1396274 C23.2197584,32.9711157 22.9167916,32.8868611 22.5570131,32.8868611 C22.1972346,32.8868611 21.8942678,32.9711157 21.6481036,33.1396274 C21.4019393,33.3081392 21.2788591,33.5421797 21.2788591,33.8417562 L21.2788591,45.581349 C21.2788591,45.8809254 21.4019393,46.114966 21.6481036,46.2834777 C21.8942678,46.4519895 22.1972346,46.5362441 22.5570131,46.5362441 C22.9167916,46.5362441 23.2197584,46.4519895 23.4659226,46.2834777 C23.7120868,46.114966 23.8351671,45.8809254 23.8351671,45.581349 L23.8351671,33.8417562 Z M30.0839202,45.9464559 C30.0839202,46.7141205 29.8945659,47.4349655 29.5158517,48.1090125 C29.1371375,48.7830595 28.6116794,49.3728417 27.9394617,49.878377 C27.267244,50.3839122 26.4719561,50.7817812 25.5535742,51.0719959 C24.6351923,51.3622105 23.6363486,51.5073157 22.5570131,51.5073157 C21.4776776,51.5073157 20.4788339,51.3622105 19.560452,51.0719959 C18.64207,50.7817812 17.8467822,50.3839122 17.1745644,49.878377 C16.5023467,49.3728417 15.9768887,48.7830595 15.5981745,48.1090125 C15.2194603,47.4349655 15.030106,46.7141205 15.030106,45.9464559 L15.030106,33.4766492 C15.030106,32.7089846 15.2194603,31.9881396 15.5981745,31.3140927 C15.9768887,30.6400457 16.5023467,30.0502634 17.1745644,29.5447282 C17.8467822,29.039193 18.64207,28.641324 19.560452,28.3511093 C20.4788339,28.0608946 21.4776776,27.9157895 22.5570131,27.9157895 C23.6363486,27.9157895 24.6351923,28.0608946 25.5535742,28.3511093 C26.4719561,28.641324 27.267244,29.039193 27.9394617,29.5447282 C28.6116794,30.0502634 29.1371375,30.6400457 29.5158517,31.3140927 C29.8945659,31.9881396 30.0839202,32.7089846 30.0839202,33.4766492 L30.0839202,45.9464559 Z M40.1446084,33.8417562 C40.1446084,33.5421797 40.0215282,33.3081392 39.7753639,33.1396274 C39.5291997,32.9711157 39.2262329,32.8868611 38.8664544,32.8868611 C38.5066759,32.8868611 38.2037091,32.9711157 37.9575449,33.1396274 C37.7113806,33.3081392 37.5883004,33.5421797 37.5883004,33.8417562 L37.5883004,45.581349 C37.5883004,45.8809254 37.7113806,46.114966 37.9575449,46.2834777 C38.2037091,46.4519895 38.5066759,46.5362441 38.8664544,46.5362441 C39.2262329,46.5362441 39.5291997,46.4519895 39.7753639,46.2834777 C40.0215282,46.114966 40.1446084,45.8809254 40.1446084,45.581349 L40.1446084,33.8417562 Z M46.3933615,45.9464559 C46.3933615,46.7141205 46.2040072,47.4349655 45.825293,48.1090125 C45.4465788,48.7830595 44.9211208,49.3728417 44.248903,49.878377 C43.5766853,50.3839122 42.7813975,50.7817812 41.8630155,51.0719959 C40.9446336,51.3622105 39.9457899,51.5073157 38.8664544,51.5073157 C37.7871189,51.5073157 36.7882752,51.3622105 35.8698933,51.0719959 C34.9515114,50.7817812 34.1562235,50.3839122 33.4840058,49.878377 C32.8117881,49.3728417 32.28633,48.7830595 31.9076158,48.1090125 C31.5289016,47.4349655 31.3395473,46.7141205 31.3395473,45.9464559 L31.3395473,33.4766492 C31.3395473,32.7089846 31.5289016,31.9881396 31.9076158,31.3140927 C32.28633,30.6400457 32.8117881,30.0502634 33.4840058,29.5447282 C34.1562235,29.039193 34.9515114,28.641324 35.8698933,28.3511093 C36.7882752,28.0608946 37.7871189,27.9157895 38.8664544,27.9157895 C39.9457899,27.9157895 40.9446336,28.0608946 41.8630155,28.3511093 C42.7813975,28.641324 43.5766853,29.039193 44.248903,29.5447282 C44.9211208,30.0502634 45.4465788,30.6400457 45.825293,31.3140927 C46.2040072,31.9881396 46.3933615,32.7089846 46.3933615,33.4766492 L46.3933615,45.9464559 Z M56.1416121,33.9260116 C56.1416121,33.3268588 55.7913067,33.0272868 55.0906855,33.0272868 L53.9261451,33.0272868 L53.9261451,46.4239035 L55.0906855,46.4239035 C55.7913067,46.4239035 56.1416121,46.1243315 56.1416121,45.5251787 L56.1416121,33.9260116 Z M61.8791035,46.2834777 C61.8791035,46.9949718 61.732354,47.636243 61.4388505,48.2073105 C61.145347,48.7783781 60.7524369,49.2698633 60.2601084,49.6817809 C59.76778,50.0936985 59.1949833,50.4073129 58.5417013,50.6226334 C57.8884194,50.837954 57.1925425,50.9456127 56.4540498,50.9456127 L47.8194092,50.9456127 L47.8194092,28.4774925 L56.4540498,28.4774925 C57.1925425,28.4774925 57.8884194,28.5851511 58.5417013,28.8004717 C59.1949833,29.0157923 59.76778,29.3294066 60.2601084,29.7413242 C60.7524369,30.1532418 61.145347,30.6447271 61.4388505,31.2157946 C61.732354,31.7868622 61.8791035,32.4281334 61.8791035,33.1396274 L61.8791035,46.2834777 Z" id="FOOD"></path>
                </g>
            </g>
        </g>
    </g>
</svg>