<?xml version="1.0" encoding="UTF-8"?>
<svg width="250px" height="206px" viewBox="0 0 250 206" version="1.1" xmlns="http://www.w3.org/2000/svg" xmlns:xlink="http://www.w3.org/1999/xlink">
    <!-- Generator: Sketch 52.2 (67145) - http://www.bohemiancoding.com/sketch -->
    <title>Artboard</title>
    <desc>Created with Sketch.</desc>
    <g id="Artboard" stroke="none" stroke-width="1" fill="none" fill-rule="evenodd">
        <g id="wmf" fill-rule="nonzero">
            <path d="M57.675,131.585 L31.89,131.585 L31.89,148.73 L49.305,148.73 L49.305,167.225 L31.89,167.225 L31.89,203 L7.725,203 L7.725,113.09 L57.675,113.09 L57.675,131.585 Z M119.555,179.24 C119.555,194.765 106.46,205.295 89.45,205.295 C72.305,205.295 59.21,194.765 59.21,179.24 L59.21,136.85 C59.21,121.325 72.305,110.93 89.45,110.93 C106.46,110.93 119.555,121.325 119.555,136.85 L119.555,179.24 Z M94.85,180.59 L94.85,135.5 C94.85,132.53 92.285,130.775 89.45,130.775 C86.615,130.775 83.915,132.53 83.915,135.5 L83.915,180.59 C83.915,183.56 86.615,185.315 89.45,185.315 C92.285,185.315 94.85,183.56 94.85,180.59 Z M184.27,179.24 C184.27,194.765 171.175,205.295 154.165,205.295 C137.02,205.295 123.925,194.765 123.925,179.24 L123.925,136.85 C123.925,121.325 137.02,110.93 154.165,110.93 C171.175,110.93 184.27,121.325 184.27,136.85 L184.27,179.24 Z M159.565,180.59 L159.565,135.5 C159.565,132.53 157,130.775 154.165,130.775 C151.33,130.775 148.63,132.53 148.63,135.5 L148.63,180.59 C148.63,183.56 151.33,185.315 154.165,185.315 C157,185.315 159.565,183.56 159.565,180.59 Z M249.12,177.62 C249.12,193.145 237.78,203 219.69,203 L189.315,203 L189.315,113.09 L219.69,113.09 C237.78,113.09 249.12,125.105 249.12,140.63 L249.12,177.62 Z M224.955,176 L224.955,140.09 C224.955,135.095 222.795,132.26 217.935,132.26 L213.48,132.26 L213.48,183.83 L217.935,183.83 C222.795,183.83 224.955,180.995 224.955,176 Z" id="FOOD" fill="#1D1D1D"></path>
            <path d="M28.8803711,106 L18.8066406,70.5229492 L18.503418,70.5229492 C18.9751,76.5649716 19.2109375,81.2592606 19.2109375,84.605957 L19.2109375,106 L7.41894531,106 L7.41894531,56.7431641 L25.140625,56.7431641 L35.4165039,91.714844 L35.6860352,91.714844 L45.7597656,56.7431641 L63.5151367,56.7431641 L63.5151367,106 L51.2851562,106 L51.2851562,84.4038086 C51.2851562,83.2807561 51.3020018,82.0341865 51.3356934,80.6640625 C51.3693849,79.2939385 51.5209947,75.9360619 51.7905273,70.590332 L51.4873047,70.590332 L41.5483398,106 L28.8803711,106 Z M104.349121,106 L101.92334,96.768555 L85.9199219,96.768555 L83.4267578,106 L68.8046875,106 L84.8754883,56.5410156 L102.630859,56.5410156 L118.903809,106 L104.349121,106 Z M99.1606445,85.8525391 L97.0380859,77.7666016 C96.5439428,75.9697176 95.9431188,73.6450338 95.2355957,70.7924805 C94.5280726,67.9399271 94.0620128,65.8960023 93.8374023,64.6606445 C93.6352529,65.8061581 93.2365752,67.692858 92.6413574,70.3208008 C92.0461396,72.9487436 90.7265727,78.1259379 88.6826172,85.8525391 L99.1606445,85.8525391 Z M166.307617,106 L151.28125,106 L141.544434,87.1665039 L137.602539,89.5249023 L137.602539,106 L124.227051,106 L124.227051,56.7431641 L137.602539,56.7431641 L137.602539,78.137207 C138.276371,76.8120051 139.635244,74.7119284 141.679199,71.8369141 L152.022461,56.7431641 L166.577148,56.7431641 L151.04541,78.8110352 L166.307617,106 Z M200.875,106 L171.630859,106 L171.630859,56.7431641 L200.875,56.7431641 L200.875,67.4233398 L184.938965,67.4233398 L184.938965,75.1723633 L199.695801,75.1723633 L199.695801,85.8525391 L184.938965,85.8525391 L184.938965,95.151367 L200.875,95.151367 L200.875,106 Z M241.708984,91.041016 C241.708984,94.095718 240.93409,96.807849 239.384277,99.17749 C237.834465,101.547131 235.599624,103.388909 232.679688,104.702881 C229.759751,106.016852 226.334492,106.673828 222.403809,106.673828 C219.124495,106.673828 216.373058,106.443606 214.149414,105.983154 C211.92577,105.522703 209.612317,104.719732 207.208984,103.574219 L207.208984,91.714844 C209.747083,93.017585 212.386217,94.033932 215.126465,94.763916 C217.866713,95.4939 220.382313,95.858887 222.67334,95.858887 C224.649912,95.858887 226.098628,95.516361 227.019531,94.831299 C227.940434,94.146237 228.400879,93.264654 228.400879,92.186523 C228.400879,91.512692 228.215578,90.923098 227.844971,90.417725 C227.474363,89.912351 226.879154,89.4013698 226.059326,88.8847656 C225.239498,88.3681615 223.055194,87.312508 219.506348,85.7177734 C216.294418,84.2578052 213.885506,82.8427803 212.279541,81.4726562 C210.673576,80.1025322 209.483158,78.5302823 208.708252,76.7558594 C207.933346,74.9814364 207.545898,72.8813598 207.545898,70.4555664 C207.545898,65.9184343 209.196761,62.3808721 212.498535,59.8427734 C215.800309,57.3046748 220.337373,56.0356445 226.109863,56.0356445 C231.208522,56.0356445 236.408177,57.214832 241.708984,59.5732422 L237.632324,69.8491211 C233.027809,67.7377824 229.052263,66.6821289 225.705566,66.6821289 C223.976066,66.6821289 222.718266,66.9853485 221.932129,67.5917969 C221.145992,68.1982452 220.75293,68.9506791 220.75293,69.8491211 C220.75293,70.8149462 221.252681,71.6796837 222.252197,72.4433594 C223.251714,73.2070351 225.963845,74.5995993 230.388672,76.6210938 C234.63381,78.530283 237.581779,80.579823 239.232666,82.7697754 C240.883553,84.9597277 241.708984,87.7167803 241.708984,91.041016 Z" id="MAKES" fill="#D48605"></path>
            <path d="M84.696,0.508 C88.85,0.508 91.454,3.236 91.454,7.204 C91.454,12.164 88.416,16.69 84.944,16.69 C83.828,16.69 83.084,15.822 83.084,14.644 C83.084,12.412 85.316,9.994 87.238,9.994 C87.61,9.994 87.796,10.056 87.982,10.056 C88.54,10.056 89.098,9.25 89.098,7.452 C89.098,4.848 87.734,2.678 84.82,2.678 C70.126,2.678 62.934,50.666 43.342,50.666 C37.886,50.666 34.6,46.636 34.166,41.614 C34.104,40.932 33.236,40.684 32.802,41.18 C28.772,46.078 23.378,50.666 18.046,50.666 C12.404,50.666 9.242,46.264 9.242,40.374 C9.242,22.766 37.7,10.862 37.7,5.096 C37.7,3.546 35.84,2.864 32.864,2.864 C18.666,2.864 5.274,13.466 5.274,20.534 C5.274,22.766 6.638,24.378 9.118,24.502 C9.862,24.564 10.172,25.556 9.49,25.99 C8.56,26.61 7.444,26.92 6.204,26.92 C3.166,26.92 0.81,24.874 0.81,21.092 C0.81,12.288 16,0.57 32.12,0.57 C38.816,0.57 40.49,2.988 40.49,5.096 C40.49,13.962 15.07,25.122 15.07,40.436 C15.07,44.094 16.806,46.512 19.41,46.512 C23.316,46.512 29.206,41.428 34.91,33.368 L53.386,7.08 C53.696,6.646 54.316,6.646 54.626,7.08 C55.37,8.072 55.742,9.25 55.742,10.49 C55.742,11.668 55.37,12.784 54.688,13.776 L45.45,26.982 C41.172,33.058 39.994,36.654 39.994,40.064 C39.994,44.28 42.04,46.512 45.016,46.512 C60.826,46.512 62.066,0.508 84.696,0.508 Z M112.648624,32.9037349 C116.536183,26.1414261 123.847945,19.666 130.328,19.666 C132.932,19.666 135.412,21.278 135.412,25.122 C135.412,30.144 132.002,37.646 127.042,42.792 C126.67,43.164 127.042,43.722 127.538,43.536 C132.002,41.8 135.35,38.514 140,32.252 C141.054,32.376 141.426,33.43 141.24,34.484 C138.512,38.452 130.762,48.62 117.184,48.62 C112.906,48.62 109.868,46.574 109.868,41.552 C109.868,41.1335359 109.89574,40.7022091 109.949617,40.2603515 C104.544019,46.6500456 100.446023,48.62 97.53,48.62 C94.74,48.62 93.686,46.45 93.686,43.97 C93.686,43.2881692 93.7529356,42.5884888 93.8819686,41.8711893 C89.4374912,46.9868149 86.2800997,48.62 83.58,48.62 C80.852,48.62 79.798,46.45 79.798,43.97 C79.798,43.2038303 79.8825189,42.4151222 80.0440381,41.6042027 C75.4048588,46.9021043 72.1239555,48.62 69.382,48.62 C66.654,48.62 65.6,46.45 65.6,43.97 C65.6,39.568 68.39,34.422 72.606,28.594 L78.248,20.472 C78.558,20.1 79.178,20.1 79.426,20.472 C80.17,21.464 80.542,22.642 80.542,23.82 C80.542,24.936 80.17,26.052 79.488,27.044 L74.9,33.616 C73.35,35.972 70.808,40.002 70.808,42.916 C70.808,43.908 71.18,44.466 71.862,44.466 C74.7194329,44.466 79.4630838,39.207453 83.7879558,33.0259484 C84.6623141,31.5960282 85.6555008,30.1183422 86.742,28.594 L103.11,5.282 C103.42,4.848 103.978,4.848 104.288,5.282 C105.094,6.398 105.466,7.39 105.466,8.568 C105.466,9.746 105.094,10.738 104.35,11.792 L89.098,33.616 C87.548,36.034 85.006,40.064 85.006,42.916 C85.006,43.908 85.316,44.528 86.06,44.528 C88.7973404,44.528 93.3401252,39.4399292 97.4784276,33.4266731 C98.4281981,31.8725598 99.5302153,30.2611849 100.754,28.594 L104.846,22.704 C105.094,22.332 104.846,21.898 104.474,21.898 L104.04,21.898 C103.296,21.898 102.862,21.34 102.862,20.72 C102.862,20.224 103.172,19.666 103.668,19.666 L106.582,19.666 C106.83,19.666 107.078,19.604 107.202,19.418 L112.472,11.792 C112.844,11.296 113.526,11.482 113.712,11.73 C114.518,12.784 114.89,13.838 114.89,15.016 C114.89,16.256 114.456,17.372 113.774,18.364 C113.34,18.984 113.712,19.666 114.332,19.666 L114.89,19.666 C115.572,19.666 116.068,20.286 116.068,20.844 C116.068,21.526 115.572,21.898 115.2,21.898 L111.666,21.898 C111.356,21.898 111.17,22.022 111.046,22.27 L102.986,33.616 C101.436,36.034 98.956,40.064 98.956,42.916 C98.956,43.97 99.328,44.528 100.01,44.528 C102.895283,44.528 107.936844,39.7492244 112.648624,32.9037349 Z M129.894,21.898 C124.996,21.898 114.89,34.67 114.89,42.11 C114.89,43.288 115.324,44.59 116.812,44.59 C121.834,44.59 132.126,32.19 132.126,24.936 C132.126,23.262 131.568,21.898 129.894,21.898 Z" id="Wilto" fill="#797979"></path>
        </g>
    </g>
</svg>