<?xml version="1.0" encoding="UTF-8" standalone="no"?>
<svg width="222px" height="41px" viewBox="0 0 222 41" version="1.1" xmlns="http://www.w3.org/2000/svg" xmlns:xlink="http://www.w3.org/1999/xlink">
    <g id="Artboard" stroke="none" stroke-width="1" fill="none" fill-rule="evenodd" transform="translate(-1.000000, -5.000000)">
        <path d="M27.408,36.936 C27.408,37.928005 27.104003,38.9519947 26.496,40.008 C25.887997,41.0640053 25.0240056,42.0319956 23.904,42.912 C22.7839944,43.7920044 21.4320079,44.5199971 19.848,45.096 C18.2639921,45.6720029 16.4960098,45.96 14.544,45.96 C12.5919902,45.96 10.816008,45.6720029 9.216,45.096 C7.615992,44.5199971 6.24000576,43.7920044 5.088,42.912 C3.93599424,42.0319956 3.0400032,41.0640053 2.4,40.008 C1.7599968,38.9519947 1.44,37.928005 1.44,36.936 L1.44,14.664 C1.44,13.671995 1.7599968,12.6480053 2.4,11.592 C3.0400032,10.5359947 3.93599424,9.5680044 5.088,8.688 C6.24000576,7.8079956 7.615992,7.08000288 9.216,6.504 C10.816008,5.92799712 12.5919902,5.64 14.544,5.64 C16.4960098,5.64 18.2639921,5.92799712 19.848,6.504 C21.4320079,7.08000288 22.7839944,7.8079956 23.904,8.688 C25.0240056,9.5680044 25.887997,10.5359947 26.496,11.592 C27.104003,12.6480053 27.408,13.671995 27.408,14.664 L27.408,21.048 L16.896,21.048 L16.896,15.768 C16.896,15.2559974 16.6640023,14.8560014 16.2,14.568 C15.7359977,14.2799986 15.1840032,14.136 14.544,14.136 C13.9039968,14.136 13.3600022,14.2799986 12.912,14.568 C12.4639978,14.8560014 12.24,15.2559974 12.24,15.768 L12.24,35.832 C12.24,36.3440026 12.4639978,36.7439986 12.912,37.032 C13.3600022,37.3200014 13.9039968,37.464 14.544,37.464 C15.1840032,37.464 15.7359977,37.3200014 16.2,37.032 C16.6640023,36.7439986 16.896,36.3440026 16.896,35.832 L16.896,30.552 L27.408,30.552 L27.408,36.936 Z M46.848,45 L46.848,30.936 L40.752,30.936 L40.752,45 L30.432,45 L30.432,6.6 L40.752,6.6 L40.752,22.152 L46.848,22.152 L46.848,6.6 L57.168,6.6 L57.168,45 L46.848,45 Z M71.568,19.56 L69.984,31.704 L72.912,31.704 L71.568,19.56 Z M74.304,45 L73.776,39.96 L68.832,39.96 L68.064,45 L58.896,45 L65.712,6.6 L78.048,6.6 L84.96,45 L74.304,45 Z M113.616,45 L113.616,19.08 L108.048,45 L101.04,45 L95.904,19.08 L95.904,45 L86.688,45 L86.688,6.6 L100.848,6.6 L105.264,25.08 L109.584,6.6 L123.936,6.6 L123.936,45 L113.616,45 Z M140.976,15.912 C140.976,14.8879949 140.384006,14.376 139.2,14.376 L137.712,14.376 L137.712,23.88 L139.2,23.88 C140.384006,23.88 140.976,23.3680051 140.976,22.344 L140.976,15.912 Z M150.624,23.688 C150.624,24.9040061 150.352003,26.007995 149.808,27 C149.263997,27.992005 148.552004,28.8319966 147.672,29.52 C146.791996,30.2080034 145.776006,30.7359982 144.624,31.104 C143.471994,31.4720018 142.272006,31.656 141.024,31.656 L137.712,31.656 L137.712,45 L127.392,45 L127.392,6.6 L141.024,6.6 C142.272006,6.6 143.471994,6.78399816 144.624,7.152 C145.776006,7.52000184 146.791996,8.05599648 147.672,8.76 C148.552004,9.46400352 149.263997,10.3039951 149.808,11.28 C150.352003,12.2560049 150.624,13.3519939 150.624,14.568 L150.624,23.688 Z M153.744,45 L153.744,6.6 L164.064,6.6 L164.064,45 L153.744,45 Z M182.304,15.768 C182.304,15.2559974 182.096002,14.8560014 181.68,14.568 C181.263998,14.2799986 180.752003,14.136 180.144,14.136 C179.535997,14.136 179.024002,14.2799986 178.608,14.568 C178.191998,14.8560014 177.984,15.2559974 177.984,15.768 L177.984,35.832 C177.984,36.3440026 178.191998,36.7439986 178.608,37.032 C179.024002,37.3200014 179.535997,37.464 180.144,37.464 C180.752003,37.464 181.263998,37.3200014 181.68,37.032 C182.096002,36.7439986 182.304,36.3440026 182.304,35.832 L182.304,15.768 Z M192.864,36.456 C192.864,37.7680066 192.544003,38.9999942 191.904,40.152 C191.263997,41.3040058 190.376006,42.3119957 189.24,43.176 C188.103994,44.0400043 186.760008,44.7199975 185.208,45.216 C183.655992,45.7120025 181.968009,45.96 180.144,45.96 C178.319991,45.96 176.632008,45.7120025 175.08,45.216 C173.527992,44.7199975 172.184006,44.0400043 171.048,43.176 C169.911994,42.3119957 169.024003,41.3040058 168.384,40.152 C167.743997,38.9999942 167.424,37.7680066 167.424,36.456 L167.424,15.144 C167.424,13.8319934 167.743997,12.6000058 168.384,11.448 C169.024003,10.2959942 169.911994,9.28800432 171.048,8.424 C172.184006,7.55999568 173.527992,6.88000248 175.08,6.384 C176.632008,5.88799752 178.319991,5.64 180.144,5.64 C181.968009,5.64 183.655992,5.88799752 185.208,6.384 C186.760008,6.88000248 188.103994,7.55999568 189.24,8.424 C190.376006,9.28800432 191.263997,10.2959942 191.904,11.448 C192.544003,12.6000058 192.864,13.8319934 192.864,15.144 L192.864,36.456 Z M213.888,45 L205.248,26.952 L205.248,45 L196.032,45 L196.032,6.6 L204.96,6.6 L213.216,24.984 L213.216,6.6 L222.384,6.6 L222.384,45 L213.888,45 Z" id="CHAMPION" fill="#000000"></path>
    </g>
</svg>